<svg xmlns="http://www.w3.org/2000/svg" version="1.1" xmlns:xlink="http://www.w3.org/1999/xlink" xmlns:svgjs="http://svgjs.dev/svgjs" width="1000" height="623" viewBox="0 0 1000 623"><g transform="matrix(1,0,0,1,-0.6060606060606233,0.2522267206477409)"><svg viewBox="0 0 396 247" data-background-color="#111827" preserveAspectRatio="xMidYMid meet" height="623" width="1000" xmlns="http://www.w3.org/2000/svg" xmlns:xlink="http://www.w3.org/1999/xlink"><g id="tight-bounds" transform="matrix(1,0,0,1,0.2400000000000091,-0.09999999999999432)"><svg viewBox="0 0 395.52 247.2" height="247.2" width="395.52"><g><svg></svg></g><g><svg viewBox="0 0 395.52 247.2" height="247.2" width="395.52"><g transform="matrix(1,0,0,1,39.55199999999999,93.95672955974842)"><svg viewBox="0 0 316.416 59.286540880503146" height="59.286540880503146" width="316.416"><g><svg viewBox="0 0 316.416 59.286540880503146" height="59.286540880503146" width="316.416"><g><svg viewBox="0 0 316.416 59.286540880503146" height="59.286540880503146" width="316.416"><g id="textblocktransform"><svg viewBox="0 0 316.416 59.286540880503146" height="59.286540880503146" width="316.416" id="textblock"><g><svg viewBox="0 0 316.416 59.286540880503146" height="59.286540880503146" width="316.416"><g transform="matrix(1,0,0,1,0,0)"><svg width="316.416" viewBox="2 -35.35 190.78 35.75" height="59.286540880503146" data-palette-color="#ffffff"><path d="M28.15-9.05L28.15-1.5Q25.1 0.4 19.35 0.4L19.35 0.4Q11.95 0.4 6.98-4.38 2-9.15 2-16.75L2-16.75Q2-24.45 6.83-29.3 11.65-34.15 19.4-34.15L19.4-34.15Q25.1-34.15 28.15-32.25L28.15-32.25 28.15-24.85Q24.4-27.15 19.8-27.15L19.8-27.15Q15.75-27.15 13-24.33 10.25-21.5 10.25-16.75L10.25-16.75Q10.25-12.1 13-9.38 15.75-6.65 20.1-6.65L20.1-6.65Q24.8-6.65 28.15-9.05L28.15-9.05ZM56.9-16.15L56.9 0 49.6 0 49.6-15Q49.6-17.2 48.5-18.45 47.4-19.7 45.65-19.7L45.65-19.7Q44.9-19.7 44.22-19.48 43.55-19.25 42.75-18.68 41.95-18.1 41.45-16.73 40.95-15.35 40.95-13.4L40.95-13.4 40.95 0 33.65 0 33.65-35.35 40.95-35.35 40.95-21.05Q42.9-25.6 48.55-25.6L48.55-25.6Q52.25-25.6 54.57-23.25 56.9-20.9 56.9-16.15L56.9-16.15ZM71.95-5L71.95-5Q73.5-5 74.34-5.95 75.2-6.9 75.2-8.55L75.2-8.55 75.2-10.4 72.84-10.4Q71-10.4 70-9.6 69-8.8 69-7.55L69-7.55Q69-5 71.95-5ZM75.55 0L75.55-3.1Q73.95 0.15 69.25 0.15L69.25 0.15Q65.55 0.15 63.47-1.95 61.4-4.05 61.4-7.2L61.4-7.2Q61.4-10.85 64.07-12.88 66.75-14.9 72-14.9L72-14.9 75.2-14.9 75.2-16.65Q75.2-19.85 70.95-19.85L70.95-19.85Q66.84-19.85 63.35-17.55L63.35-17.55 63.35-24.1Q66.34-25.8 72-25.8L72-25.8Q77.4-25.8 80.05-23.48 82.7-21.15 82.7-16.25L82.7-16.25 82.7 0 75.55 0ZM103.24-6.6L103.24-0.55Q101.39 0.25 98.24 0.25L98.24 0.25Q89.59 0.25 89.59-8.4L89.59-8.4 89.59-20 85.94-20 85.94-25.35 89.59-25.35 89.59-31.35 96.89-31.35 96.89-25.35 102.79-25.35 102.79-20 96.89-20 96.89-8.35Q96.89-7 97.67-6.3 98.44-5.6 99.69-5.6L99.69-5.6Q101.69-5.6 103.24-6.6L103.24-6.6ZM119.59-10.9L119.59-10.9 115.69-10.9 115.69 0 107.99 0 107.99-33.7 119.59-33.7Q125.19-33.7 128.67-30.55 132.14-27.4 132.14-22.55L132.14-22.55Q132.14-17 128.52-13.95 124.89-10.9 119.59-10.9ZM118.69-27.55L118.69-27.55 115.69-27.55 115.69-17 118.24-17Q124.34-17 124.34-22.55L124.34-22.55Q124.34-27.55 118.69-27.55ZM145.19-5L145.19-5Q146.74-5 147.59-5.95 148.44-6.9 148.44-8.55L148.44-8.55 148.44-10.4 146.09-10.4Q144.24-10.4 143.24-9.6 142.24-8.8 142.24-7.55L142.24-7.55Q142.24-5 145.19-5ZM148.79 0L148.79-3.1Q147.19 0.15 142.49 0.15L142.49 0.15Q138.79 0.15 136.71-1.95 134.64-4.05 134.64-7.2L134.64-7.2Q134.64-10.85 137.31-12.88 139.99-14.9 145.24-14.9L145.24-14.9 148.44-14.9 148.44-16.65Q148.44-19.85 144.19-19.85L144.19-19.85Q140.09-19.85 136.59-17.55L136.59-17.55 136.59-24.1Q139.59-25.8 145.24-25.8L145.24-25.8Q150.64-25.8 153.29-23.48 155.94-21.15 155.94-16.25L155.94-16.25 155.94 0 148.79 0ZM169.24-35.35L169.24 0 161.94 0 161.94-35.35 169.24-35.35ZM192.78-7.65L192.78-7.65Q192.78-3.9 190.08-1.85 187.38 0.2 182.93 0.2L182.93 0.2Q178.33 0.2 175.23-1.35L175.23-1.35 175.23-7.85Q178.68-5.45 182.53-5.45L182.53-5.45Q185.28-5.45 185.28-7.2L185.28-7.2Q185.28-7.65 185.03-8.05 184.78-8.45 184.18-8.8 183.58-9.15 183.08-9.38 182.58-9.6 181.63-10 180.68-10.4 180.18-10.65L180.18-10.65Q175.13-13.05 175.13-17.85L175.13-17.85Q175.13-21.55 177.96-23.6 180.78-25.65 184.98-25.65L184.98-25.65Q188.88-25.65 191.48-24.6L191.48-24.6 191.48-18.35Q188.83-19.9 185.28-19.9L185.28-19.9Q183.98-19.9 183.28-19.38 182.58-18.85 182.58-18.05L182.58-18.05Q182.58-17.6 182.83-17.2 183.08-16.8 183.66-16.45 184.23-16.1 184.76-15.83 185.28-15.55 186.21-15.15 187.13-14.75 187.68-14.45L187.68-14.45Q189.98-13.25 191.38-11.68 192.78-10.1 192.78-7.65Z" opacity="1" transform="matrix(1,0,0,1,0,0)" fill="#ffffff" class="undefined-text-0" data-fill-palette-color="primary" id="text-0"></path></svg></g></svg></g></svg></g></svg></g></svg></g></svg></g><g mask="url(#869ce561-f563-4d05-a256-343959419a3b)"><g transform="matrix(2.452, 0, 0, 2.452, 75.16, 1)"><svg xmlns="http://www.w3.org/2000/svg" xmlns:xlink="http://www.w3.org/1999/xlink" version="1.1" x="0" y="0" viewBox="0 0 100 100" style="enable-background:new 0 0 100 100;" xml:space="preserve" height="100" width="100" class="icon-none" data-fill-palette-color="accent" id="none"><g fill="#4285f4" data-fill-palette-color="accent"><path d="M81.177 38.165c-0.085 4.334-1.05 8.423-2.759 12.152C87.427 51.818 87.5 59.155 87.5 62.5c0 3.101 0 12.5-12.488 12.5H62.5c-8.143 0-15.43 3.931-19.995 10.01C39.478 82.715 37.5 79.077 37.5 75V62.5c0-2.472 0.439-4.419 1.123-6.024-0.366-0.067-0.732-0.226-1.123-0.226H25.635c-0.402 1.935-0.623 4.004-0.623 6.25V75c0 13.807 11.182 25 24.988 25 0-6.909 5.591-12.5 12.5-12.5h12.512C87.5 87.5 100 80.469 100 62.5 100 47.211 91.309 40.125 81.177 38.165z" fill="#4285f4" data-fill-palette-color="accent"></path></g><path d="M50 12.5c4.663 0 12.5 1.623 12.5 12.5v12.5c0 4.09-1.978 7.721-5.005 10.004C52.93 41.437 45.654 37.5 37.5 37.5H25.012C12.5 37.5 12.5 28.095 12.5 25c0-3.735 0-12.5 12.512-12.5H50M50 0H25.012C12.5 0 0 6.641 0 25c0 17.969 12.5 25 25.012 25H37.5C44.409 50 50 55.604 50 62.5c13.807 0 25.012-11.193 25.012-25V25C75.012 7.745 62.5 0 50 0L50 0z" fill="#4285f4" data-fill-palette-color="accent"></path></svg></g></g></svg></g><defs><mask id="869ce561-f563-4d05-a256-343959419a3b"><rect width="640" height="400" fill="white"></rect><rect width="348.05760000000004" height="87.27879973031446" fill="black" x="145.97119999999998" y="156.36060013484277" id="transform-me" transform="matrix(1,0,0,1,-122.24000000000001,-76.4)"></rect></mask></defs></svg><rect width="395.52" height="247.2" fill="none" stroke="none" visibility="hidden"></rect></g></svg></g></svg>